<svg width="512" height="512" viewBox="0 0 512 512" fill="none" xmlns="http://www.w3.org/2000/svg">
<g clip-path="url(#clip0_119_14)">
<path d="M22.6743 433.915C49.9271 443.275 78.4817 447.996 107.383 447.996C210.666 447.996 302.753 387.912 336.515 298.466C342.851 281.745 333.217 263.504 315.164 257.744C297.024 251.903 277.236 260.704 270.987 277.425C246.859 341.189 181.157 383.992 107.383 383.992C86.7269 383.992 66.3308 380.631 46.8025 373.911C28.8365 367.751 8.87435 376.151 2.19135 392.792C-4.49164 409.353 4.62154 427.754 22.5875 433.915H22.6743Z" fill="#5F85DB"/>
<path d="M107.383 319.988C151.647 319.988 191.051 294.386 205.372 256.384C220.647 215.981 262.221 190.139 308.741 192.139C343.719 193.66 376.439 212.461 394.318 241.263C397.183 245.823 399.526 250.463 401.349 255.023C403.432 260.224 405.081 265.824 406.209 271.825C406.99 275.745 407.424 278.945 407.598 281.905C407.598 282.545 407.685 283.185 407.771 283.825C408.379 295.986 406.383 307.987 402.043 319.588C381.647 373.431 344.587 420.074 294.855 454.396C279.492 464.957 276.368 485.038 287.911 499.199C294.768 507.6 305.183 512 315.685 512C322.888 512 330.266 509.92 336.428 505.6C397.269 463.597 442.662 406.553 467.571 340.629C475.209 320.388 478.42 299.266 476.945 277.985C476.945 277.185 476.771 276.385 476.684 275.585C476.25 270.945 475.556 266.064 474.514 260.704C472.605 250.863 469.828 241.343 466.269 232.462C463.145 224.782 459.152 217.101 454.552 209.501C425.043 161.737 370.364 130.535 311.866 128.055C234.36 124.775 165.274 167.818 139.757 235.182C135.07 247.583 122.051 255.904 107.297 255.904C95.7533 255.904 85.1647 250.863 78.3949 242.143C74.6628 237.342 69.1949 227.422 73.8817 214.781C109.64 119.335 211.274 57.4908 320.979 64.4512C370.017 67.5714 416.537 84.5325 455.507 113.414C470.435 124.535 492.307 122.375 504.284 108.614C516.348 94.8532 514.005 74.6919 499.077 63.6512C448.998 26.4488 389.111 4.6874 325.839 0.687145C184.802 -8.27343 54.3535 71.1717 8.3536 193.98C-2.49543 223.021 2.45174 254.143 21.98 279.425C41.6818 304.867 73.5345 320.068 107.383 320.068V319.988Z" fill="#5F85DB"/>
</g>
<defs>
<clipPath id="clip0_119_14">
<rect width="512" height="512" fill="white"/>
</clipPath>
</defs>
</svg>
